<svg xmlns="http://www.w3.org/2000/svg"  viewBox="0 0 256 256" width="64px" height="64px"><path fill="#F9D0B4" d="M155.028,126.567c-2.062-2.162-5.414-2.361-7.765-0.516c-3.716,2.917-10.146,6.523-19.229,6.523 c-9.104,0-15.568-3.623-19.3-6.544c-2.348-1.838-5.694-1.632-7.752,0.526l-0.011,0.011c-2.892,3.032-4.505,7.061-4.505,11.251 v26.464c0,17.343,14.19,31.533,31.533,31.533h0c17.343,0,31.533-14.19,31.533-31.533v-26.464 C159.533,133.628,157.92,129.599,155.028,126.567z"/><path fill="#F9D0B4" d="M161.556,140.25c-0.689,0-1.364,0.058-2.023,0.16c0,3.355,0,18.884,0,23.872 c0,0.711-0.032,1.415-0.079,2.115c0.686,0.111,1.385,0.184,2.103,0.184c7.271,0,13.165-5.894,13.165-13.165 S168.827,140.25,161.556,140.25z"/><path fill="#F9D0B4" d="M96.467,164.282c0-3.267,0-17.376,0-23.872c-0.66-0.102-1.335-0.16-2.023-0.16 c-7.271,0-13.165,5.894-13.165,13.165s5.894,13.165,13.165,13.165c0.717,0,1.417-0.073,2.103-0.184v-0.001 C96.5,165.696,96.467,164.993,96.467,164.282z"/><path fill="#5B5D60" d="M159.415,113.352c-1.056,0-1.971-0.814-1.986-1.87C157.188,93.91,137.122,90.61,117.14,94.06 c-16.942,2.925-29.324,17.617-29.324,34.809v13.183c1.948-1.139,4.208-1.803,6.627-1.803c0.689,0,1.363,0.058,2.023,0.16v-2.592 c0-4.19,1.613-8.219,4.505-11.251l0.011-0.011c2.058-2.158,5.404-2.364,7.752-0.526c3.732,2.921,10.196,6.544,19.3,6.544 c9.082,0,15.512-3.606,19.229-6.523c2.35-1.845,5.703-1.646,7.765,0.516c2.892,3.032,4.505,7.061,4.505,11.251v2.592 c0.66-0.102,1.335-0.16,2.024-0.16c2.449,0,4.733,0.681,6.697,1.845c0-3.679,0-7.458,0-10.824 C168.253,115.537,162.572,113.352,159.415,113.352z"/><path fill="#F9D0B4" d="M123.381,215.916c0.362,0.362,0.548,0.83,0.573,1.304h8.093c0.024-0.474,0.21-0.942,0.573-1.304 l11.798-11.799c-0.967-1.425-1.595-3.089-1.779-4.871c-0.073-0.708-0.111-1.354-0.111-1.878v-5.132 c-4.355,2.28-9.295,3.578-14.527,3.578h0c-5.232,0-10.172-1.299-14.527-3.578v5.132c0,0.524-0.038,1.169-0.111,1.878 c-0.185,1.782-0.812,3.446-1.779,4.87L123.381,215.916z"/><path fill="#DAE6F1" d="M186.82,253.5c2.974,0,5.334-2.505,5.158-5.474l-0.905-15.201c-0.362-6.379-4.41-11.962-10.36-14.29 l-26.041-8.693c0.038,0.907-0.274,1.826-0.956,2.525l-12.174,12.47c-0.777,0.777-2.036,0.777-2.812,0l-1.741-1.741l-4.408,7.691 h-9.16l-4.408-7.691l-1.741,1.741c-0.777,0.777-2.036,0.777-2.812,0l-12.174-12.47c-0.683-0.699-0.994-1.618-0.956-2.525 l-26.041,8.693c-5.95,2.328-9.997,7.911-10.36,14.29l-0.905,15.201c-0.177,2.969,2.183,5.474,5.158,5.474H186.82z"/><path fill="#EDF4FC" d="M148.797,202.55c-0.777-0.777-2.036-0.777-2.813,0l-13.365,13.365c-0.777,0.777-0.777,2.036,0,2.812 l6.11,6.11c0.777,0.777,2.036,0.777,2.812,0l12.174-12.47c1.292-1.323,1.293-3.435,0.003-4.761L148.797,202.55z"/><path fill="#EDF4FC" d="M107.203,202.55c0.777-0.777,2.036-0.777,2.813,0l13.365,13.365c0.777,0.777,0.777,2.036,0,2.812 l-6.11,6.11c-0.777,0.777-2.036,0.777-2.812,0l-12.174-12.47c-1.292-1.323-1.293-3.435-0.003-4.761L107.203,202.55z"/><polygon fill="#FC657E" points="135,253.5 132.58,230.788 123.42,230.788 121,253.5"/><path fill="#FC657E" d="M132.619,218.728c-0.414-0.414-0.6-0.965-0.573-1.508h-8.093c0.028,0.542-0.158,1.094-0.573,1.508 l-4.369,4.369l4.408,7.691h9.16l4.408-7.691L132.619,218.728z"/><path fill="#70D6F9" d="M28.219,66.213H62.99c6.539,0,11.889,5.35,11.889,11.889v24.168c0,6.539-5.35,11.889-11.889,11.889 H47.913c-1.437,0-2.603,1.165-2.604,2.602l-0.005,6.886c-0.001,1.694-2.049,2.541-3.247,1.343l-10.105-10.107 c-0.464-0.464-1.093-0.724-1.748-0.724h-1.985c-6.539,0-11.889-5.35-11.889-11.889V78.102 C16.33,71.563,21.68,66.213,28.219,66.213z"/><path fill="#F5C84C" d="M16.33,78.102c0-6.539,5.35-11.889,11.889-11.889h32.829v-1.02c0-6.539-5.35-11.889-11.889-11.889H14.389 C7.85,53.305,2.5,58.655,2.5,65.194v24.168c0,6.539,5.35,11.889,11.889,11.889h1.942V78.102z"/><circle cx="101.892" cy="36.922" r="10.097" fill="#F5C84C"/><circle cx="138.608" cy="12.597" r="10.097" fill="#70D6F9"/><circle cx="138.608" cy="61.246" r="10.097" fill="#FC657E"/><path fill="#FC657E" d="M182.215,63.971l6.867,4.271c1.573,0.978,2.054,3.046,1.076,4.619l-13.202,21.223 c-0.978,1.573-3.046,2.054-4.619,1.076l-6.867-4.271c-1.573-0.978-2.054-3.046-1.076-4.619l13.202-21.223 C178.574,63.474,180.642,62.992,182.215,63.971z"/><path fill="#70D6F9" d="M235.173,63.971l-6.867,4.271c-1.573,0.978-2.055,3.046-1.076,4.619l13.202,21.223 c0.978,1.573,3.046,2.054,4.619,1.076l6.867-4.271c1.573-0.978,2.054-3.046,1.076-4.619l-13.202-21.223 C238.814,63.474,236.746,62.992,235.173,63.971z"/><path fill="#F9D0B4" d="M227.349,73.052l-2.404,1.496c-1.755,1.092-3.94,1.234-5.822,0.379l-8.428-3.828 c-2.139-0.971-4.723-0.615-6.357,1.073c-2.417,2.497-1.901,6.589,1.061,8.408l2.491,1.529c0.687,0.422,0.952,1.191,0.808,1.888 c0.092,0.453,0.348,0.877,0.792,1.153l8.381,5.213c3.904,2.428,5.1,7.561,2.671,11.465l-5.718,9.192 c-1.397,2.246-3.691,3.59-6.13,3.868c1.799,0.205,3.678-0.166,5.335-1.197l15.227-9.472c2.074-1.29,3.775-3.099,4.936-5.248 c1.161-2.149,2.862-3.958,4.936-5.248l0.78-0.485L227.349,73.052z"/><path fill="#F9D0B4" d="M217.871,90.365l-8.381-5.213c-0.595-0.37-0.941-1.12-0.802-1.854c-0.087-0.466-0.34-0.906-0.798-1.187 l-2.491-1.529c-2.961-1.818-3.478-5.911-1.061-8.408c0.003-0.003,0.006-0.005,0.009-0.008l-6.082,2.762 c-1.882,0.855-4.067,0.712-5.822-0.379l-2.404-1.496L177.481,93.24l0.78,0.485c2.074,1.29,3.775,3.099,4.936,5.248 c1.161,2.149,2.862,3.958,4.936,5.248l15.227,9.472c3.894,2.423,9.045,1.219,11.465-2.671l5.718-9.192 C222.97,97.926,221.774,92.793,217.871,90.365z"/><path fill="#FC657E" d="M212.013,149.2c-3.1-0.6-5.6-3-6.2-6.1c0-0.1-0.3-0.1-0.3,0c-0.6,3.1-3.1,5.5-6.2,6.1 c-0.1,0-0.1,0.2,0,0.3c3.1,0.6,5.6,3,6.2,6.1c0,0.1,0.3,0.1,0.3,0c0.6-3.1,3.1-5.5,6.2-6.1 C212.113,149.4,212.113,149.2,212.013,149.2z"/><path fill="#87D147" d="M50.1,194.5h2.3v2.3c0,1.8,1.4,3.2,3.2,3.2c1.7,0,3.2-1.4,3.2-3.1v-0.1v-2.3h2.3c1.8,0,3.2-1.4,3.2-3.2 c0-1.7-1.4-3.2-3.1-3.2h-0.1h-2.3v-2.3c0-1.8-1.4-3.2-3.2-3.2c-1.7,0-3.2,1.4-3.2,3.1v0.1v2.3h-2.3c-1.8,0-3.2,1.4-3.2,3.2 C46.8,193,48.2,194.5,50.1,194.5C50,194.5,50,194.5,50.1,194.5z"/><circle cx="40.5" cy="155.9" r="3.4" fill="#F5C84C"/><circle cx="209.5" cy="39.4" r="3.4" fill="#70D6F9"/><path fill="#F5C84C" d="M175.9,8.85c4.5-0.8,8-4.3,8.9-8.7c0-0.2,0.4-0.2,0.4,0c0.9,4.4,4.4,7.9,8.9,8.7c0.2,0,0.2,0.3,0,0.4 c-4.5,0.8-8,4.3-8.9,8.7c0,0.2-0.4,0.2-0.4,0c-0.9-4.4-4.4-7.9-8.9-8.7C175.7,9.15,175.7,8.85,175.9,8.85z"/><path d="M128,198.315c-18.766,0-34.033-15.267-34.033-34.033v-26.464c0-4.854,1.845-9.463,5.195-12.977 c2.956-3.099,7.729-3.43,11.113-0.781c3.504,2.743,9.43,6.013,17.759,6.013c8.311,0,14.205-3.257,17.686-5.989 c3.389-2.66,8.168-2.334,11.117,0.757c0,0,0,0,0,0c3.35,3.514,5.195,8.122,5.195,12.977v26.464 C162.033,183.048,146.766,198.315,128,198.315z M105.132,127.28c-0.86,0-1.708,0.338-2.341,1 c-2.47,2.591-3.824,5.974-3.824,9.538v26.464c0,16.009,13.024,29.033,29.033,29.033s29.033-13.024,29.033-29.033v-26.464 c0-3.564-1.354-6.947-3.814-9.526c-1.161-1.218-3.057-1.336-4.411-0.275c-4.101,3.219-11.034,7.056-20.773,7.056 c-9.754,0-16.717-3.848-20.841-7.075C106.579,127.517,105.852,127.28,105.132,127.28z"/><path d="M161.557,169.081c-0.781,0-1.599-0.07-2.5-0.215c-1.274-0.205-2.184-1.347-2.098-2.635 c0.051-0.754,0.074-1.373,0.074-1.948V140.41c0-1.233,0.899-2.282,2.118-2.471c0.813-0.125,1.623-0.189,2.406-0.189 c8.638,0,15.665,7.027,15.665,15.665C177.222,162.053,170.194,169.081,161.557,169.081z M162.033,142.761v21.309 c5.661-0.25,10.188-4.934,10.188-10.655S167.694,143.011,162.033,142.761z"/><path d="M94.444,169.081c-8.638,0-15.666-7.027-15.666-15.666c0-8.638,7.027-15.665,15.666-15.665 c0.783,0,1.592,0.064,2.405,0.189c1.219,0.188,2.118,1.237,2.118,2.471v23.872c0,0.58,0.023,1.198,0.074,1.947 c0.086,1.287-0.821,2.428-2.094,2.635C96.048,169.01,95.229,169.081,94.444,169.081z M93.967,142.761 c-5.661,0.25-10.189,4.933-10.189,10.654s4.528,10.405,10.189,10.655V142.761z"/><path d="M128.458,178.771c-4.159,0-8.069-1.703-10.459-4.555c-0.887-1.058-0.748-2.635,0.31-3.522 c1.059-0.887,2.635-0.747,3.522,0.31c1.452,1.732,3.93,2.767,6.627,2.767s5.175-1.035,6.627-2.767 c0.887-1.058,2.463-1.198,3.522-0.31c1.058,0.887,1.197,2.464,0.31,3.522C136.527,177.069,132.617,178.771,128.458,178.771z"/><path d="M168.253,144.595c-0.441,0-0.882-0.117-1.275-0.35c-1.65-0.978-3.525-1.495-5.422-1.495 c-0.528,0-1.081,0.044-1.642,0.131c-0.721,0.11-1.455-0.098-2.009-0.573c-0.554-0.475-0.873-1.168-0.873-1.898v-2.592 c0-3.564-1.354-6.947-3.814-9.526c-1.162-1.218-3.058-1.337-4.411-0.275c-4.101,3.219-11.034,7.056-20.773,7.056 c-9.754,0-16.717-3.848-20.841-7.075c-1.349-1.056-3.241-0.935-4.402,0.283c-2.47,2.591-3.824,5.974-3.824,9.538v2.592 c0,0.729-0.319,1.423-0.873,1.898c-0.554,0.475-1.288,0.683-2.009,0.573c-0.562-0.087-1.114-0.131-1.642-0.131 c-1.875,0-3.731,0.505-5.366,1.461c-0.774,0.451-1.73,0.456-2.506,0.01c-0.777-0.446-1.256-1.273-1.256-2.168v-13.184 c0-18.456,13.205-34.131,31.398-37.272c9.381-1.621,26.603-3.108,36.525,5.132c4.215,3.5,6.459,8.254,6.675,14.135 c4.27,0.213,10.839,3.321,10.839,20.406v10.824c0,0.898-0.482,1.728-1.262,2.172C169.107,144.485,168.68,144.595,168.253,144.595 z M162.033,137.757c1.26,0.039,2.51,0.232,3.721,0.571v-7.058c0-9.799-2.31-15.418-6.338-15.418c-2.44,0-4.453-1.945-4.486-4.336 c-0.064-4.686-1.662-8.265-4.884-10.94c-6.121-5.082-17.959-6.559-32.48-4.052c-15.789,2.727-27.249,16.33-27.249,32.345v9.44 c1.189-0.327,2.415-0.514,3.651-0.552c0.015-4.833,1.859-9.417,5.195-12.916c2.956-3.099,7.729-3.43,11.113-0.781 c3.504,2.743,9.43,6.013,17.759,6.013c8.311,0,14.205-3.257,17.686-5.989c3.389-2.66,8.168-2.334,11.117,0.757 C160.174,128.34,162.018,132.925,162.033,137.757z M159.929,111.447h0.01H159.929z"/><path d="M169.488,255.22c-1.381,0-2.5-1.119-2.5-2.5v-15.471c0-1.381,1.119-2.5,2.5-2.5s2.5,1.119,2.5,2.5v15.471 C171.988,254.101,170.869,255.22,169.488,255.22z"/><path d="M86.512,255.22c-1.381,0-2.5-1.119-2.5-2.5v-15.471c0-1.381,1.119-2.5,2.5-2.5s2.5,1.119,2.5,2.5v15.471 C89.012,254.101,87.893,255.22,86.512,255.22z"/><circle cx="142.685" cy="154.87" r="4.237"/><circle cx="114.233" cy="154.87" r="4.237"/><path d="M132.046,219.72h-8.093c-1.265,0-2.318-0.941-2.479-2.175l-11.66-11.66c-0.848-0.848-0.975-2.179-0.301-3.171 c0.753-1.11,1.224-2.398,1.361-3.725c0.064-0.617,0.098-1.177,0.098-1.62v-5.132c0-0.875,0.457-1.686,1.206-2.139 c0.749-0.453,1.679-0.482,2.454-0.076c4.175,2.185,8.673,3.293,13.368,3.293c4.696,0,9.194-1.108,13.368-3.293 c0.774-0.406,1.706-0.377,2.454,0.076c0.749,0.453,1.206,1.264,1.206,2.139v5.132c0,0.443,0.034,1.003,0.098,1.621 c0.137,1.326,0.608,2.614,1.361,3.724c0.673,0.993,0.547,2.323-0.301,3.171l-11.66,11.66 C134.365,218.779,133.311,219.72,132.046,219.72z M121.613,217.683h0.01H121.613z M125.632,214.72h4.736 c0.144-0.203,0.305-0.395,0.483-0.572l10.458-10.459c-0.614-1.319-1.009-2.737-1.159-4.185c-0.081-0.786-0.124-1.524-0.124-2.136 v-1.271c-7.671,2.917-16.381,2.917-24.055,0v1.271c0,0.611-0.043,1.35-0.124,2.135c-0.15,1.448-0.545,2.866-1.159,4.186 l10.458,10.459C125.327,214.326,125.488,214.517,125.632,214.72z"/><path d="M60.986,83.189H30.684c-1.381,0-2.5-1.119-2.5-2.5s1.119-2.5,2.5-2.5h30.302c1.381,0,2.5,1.119,2.5,2.5 S62.367,83.189,60.986,83.189z"/><path d="M60.986,93.147H30.684c-1.381,0-2.5-1.119-2.5-2.5s1.119-2.5,2.5-2.5h30.302c1.381,0,2.5,1.119,2.5,2.5 S62.367,93.147,60.986,93.147z"/><path d="M60.986,103.104H30.684c-1.381,0-2.5-1.119-2.5-2.5s1.119-2.5,2.5-2.5h30.302c1.381,0,2.5,1.119,2.5,2.5 S62.367,103.104,60.986,103.104z"/><path d="M110.77,33.89c-0.803,0-1.591-0.386-2.075-1.102c-0.772-1.144-0.471-2.698,0.674-3.471l18.994-12.821 c1.144-0.771,2.697-0.471,3.471,0.674c0.772,1.144,0.471,2.698-0.674,3.471l-18.994,12.821 C111.737,33.751,111.25,33.89,110.77,33.89z"/><path d="M129.951,58.121c-0.467,0-0.939-0.131-1.36-0.404l-19.578-12.726c-1.158-0.752-1.486-2.301-0.734-3.458 c0.753-1.158,2.301-1.487,3.458-0.734l19.578,12.726c1.158,0.752,1.486,2.301,0.734,3.458 C131.571,57.72,130.769,58.121,129.951,58.121z"/><path d="M186.82,256H69.18c-2.104,0-4.137-0.878-5.58-2.409c-1.442-1.531-2.198-3.613-2.073-5.713l0.905-15.201 c0.416-7.326,5.104-13.793,11.944-16.47c0.04-0.016,0.08-0.03,0.12-0.043l26.041-8.693c0.778-0.26,1.638-0.121,2.295,0.374 c0.657,0.495,1.029,1.281,0.995,2.103c-0.008,0.184,0.029,0.45,0.247,0.673l11.796,12.083l1.375-1.375 c0.551-0.55,1.326-0.813,2.098-0.71c0.771,0.103,1.451,0.56,1.838,1.235l3.688,6.435h6.263l3.688-6.435 c0.387-0.675,1.067-1.132,1.838-1.235c0.771-0.103,1.547,0.16,2.098,0.71l1.375,1.375l11.795-12.083 c0.219-0.224,0.255-0.49,0.248-0.674c-0.034-0.822,0.337-1.608,0.995-2.103c0.656-0.495,1.515-0.634,2.295-0.374l26.041,8.693 c0.04,0.014,0.08,0.028,0.12,0.043c6.84,2.677,11.528,9.145,11.945,16.477l0.904,15.194c0.125,2.1-0.631,4.182-2.073,5.713 C190.957,255.122,188.923,256,186.82,256z M76.142,220.886c-4.994,1.98-8.414,6.715-8.718,12.082l-0.905,15.208 c-0.044,0.741,0.212,1.447,0.721,1.987c0.509,0.54,1.198,0.838,1.941,0.838h117.64c0.743,0,1.432-0.298,1.941-0.838 c0.509-0.541,0.765-1.246,0.721-1.987l-0.905-15.201c-0.305-5.373-3.725-10.108-8.719-12.088l-23.523-7.853 c-0.232,0.39-0.511,0.753-0.832,1.082l-12.173,12.47c-0.869,0.869-1.997,1.336-3.195,1.336c-0.932,0-1.821-0.282-2.568-0.806 l-2.818,4.917c-0.445,0.777-1.273,1.257-2.169,1.257h-9.16c-0.896,0-1.724-0.479-2.169-1.257l-2.818-4.917 c-0.748,0.523-1.636,0.806-2.568,0.806c-1.199,0-2.326-0.467-3.174-1.315l-12.195-12.491c-0.32-0.328-0.598-0.691-0.831-1.081 L76.142,220.886z"/><path d="M140.135,227.92c-1.2,0-2.327-0.467-3.175-1.315l-6.109-6.109c-0.848-0.847-1.315-1.974-1.315-3.174 c0-1.199,0.467-2.326,1.315-3.174l13.365-13.365c1.749-1.75,4.597-1.75,6.347-0.001c0.008,0.008,0.016,0.017,0.024,0.025 l4.922,5.057c2.253,2.314,2.25,5.938-0.006,8.25l-12.174,12.471C142.461,227.454,141.334,227.92,140.135,227.92z M134.749,217.322l5.382,5.382l11.796-12.083c0.348-0.355,0.348-0.914,0.001-1.27l-4.542-4.667L134.749,217.322z"/><path d="M115.865,227.92c-1.199,0-2.326-0.467-3.174-1.315l-12.195-12.491c-2.256-2.312-2.259-5.935-0.006-8.25l4.922-5.057 c0.008-0.008,0.016-0.017,0.024-0.025c1.75-1.75,4.599-1.749,6.347,0.001l13.365,13.365c0.848,0.848,1.315,1.975,1.315,3.174 c0,1.2-0.467,2.327-1.315,3.175l-6.109,6.109C118.191,227.453,117.064,227.92,115.865,227.92z M116.248,223.091h0.01H116.248z M108.614,204.685l-4.542,4.667c-0.347,0.356-0.346,0.914,0.001,1.27l11.796,12.083l5.382-5.382L108.614,204.685z"/><path d="M135,256H121c-0.709,0-1.385-0.301-1.859-0.829s-0.702-1.231-0.627-1.937l2.42-22.711 c0.135-1.271,1.208-2.235,2.486-2.235h9.16c1.278,0,2.351,0.964,2.486,2.235l2.42,22.711c0.075,0.706-0.153,1.409-0.627,1.937 S135.709,256,135,256z M123.78,251h8.439l-1.887-17.711h-4.665L123.78,251z"/><path d="M132.58,233.289h-9.16c-0.896,0-1.724-0.479-2.169-1.257l-4.408-7.691c-0.561-0.979-0.397-2.213,0.401-3.011l4.211-4.212 c0.025-0.603,0.267-1.179,0.686-1.619c0.472-0.497,1.127-0.778,1.813-0.778h8.093c0.685,0,1.34,0.281,1.813,0.778 c0.419,0.44,0.661,1.017,0.686,1.619l4.211,4.212c0.798,0.798,0.962,2.032,0.401,3.011l-4.408,7.691 C134.304,232.809,133.476,233.289,132.58,233.289z M124.869,228.289h6.263l2.737-4.776l-3.017-3.017 c-0.236-0.236-0.443-0.497-0.618-0.775h-4.466c-0.176,0.279-0.383,0.54-0.62,0.777l-3.016,3.016L124.869,228.289z"/><path d="M43.398,128.048c-1.144,0-2.265-0.447-3.108-1.292L30.185,116.65l-1.966,0.008c-7.934,0-14.389-6.455-14.389-14.388 V78.102c0-7.934,6.455-14.389,14.389-14.389H62.99c7.934,0,14.388,6.455,14.388,14.389v24.168 c0,7.934-6.455,14.388-14.388,14.388H47.913c-0.057,0-0.104,0.047-0.104,0.104l-0.005,6.886c-0.001,1.787-1.069,3.382-2.72,4.064 C44.538,127.938,43.965,128.048,43.398,128.048z M28.219,68.713c-5.177,0-9.389,4.212-9.389,9.389v24.168 c0,5.177,4.212,9.388,9.389,9.388h1.985c1.328,0,2.577,0.518,3.516,1.457l9.085,9.086l0.004-5.442 c0.002-2.813,2.292-5.101,5.104-5.101H62.99c5.177,0,9.388-4.211,9.388-9.388V78.102c0-5.177-4.211-9.389-9.388-9.389H28.219z"/><path d="M16.33,103.75h-1.941C6.455,103.75,0,97.295,0,89.362V65.193c0-7.934,6.455-14.388,14.389-14.388H49.16 c7.934,0,14.389,6.455,14.389,14.388v1.02c0,1.381-1.119,2.5-2.5,2.5h-32.83c-5.177,0-9.389,4.212-9.389,9.389v23.148 C18.83,102.631,17.711,103.75,16.33,103.75z M14.389,55.805C9.212,55.805,5,60.017,5,65.193v24.168 c0,4.989,3.912,9.082,8.83,9.372V78.102c0-7.934,6.455-14.389,14.389-14.389h30.213c-0.711-4.476-4.598-7.908-9.272-7.908H14.389 z"/><path d="M101.892,49.519c-6.946,0-12.597-5.651-12.597-12.597c0-6.946,5.651-12.597,12.597-12.597 c6.946,0,12.597,5.651,12.597,12.597C114.489,43.868,108.838,49.519,101.892,49.519z M101.892,29.325 c-4.189,0-7.597,3.408-7.597,7.597s3.408,7.597,7.597,7.597s7.597-3.408,7.597-7.597S106.081,29.325,101.892,29.325z"/><path d="M138.608,25.194c-6.946,0-12.597-5.651-12.597-12.597C126.011,5.651,131.662,0,138.608,0 c6.946,0,12.597,5.651,12.597,12.597C151.205,19.543,145.554,25.194,138.608,25.194z M138.608,5 c-4.189,0-7.597,3.408-7.597,7.597s3.408,7.597,7.597,7.597s7.597-3.408,7.597-7.597S142.797,5,138.608,5z"/><path d="M138.608,73.843c-6.946,0-12.597-5.651-12.597-12.597c0-6.946,5.651-12.597,12.597-12.597 c6.946,0,12.597,5.651,12.597,12.597C151.205,68.192,145.554,73.843,138.608,73.843z M138.608,53.649 c-4.189,0-7.597,3.408-7.597,7.597s3.408,7.597,7.597,7.597s7.597-3.408,7.597-7.597S142.797,53.649,138.608,53.649z"/><path d="M174.097,98.168c-1.08,0-2.141-0.301-3.081-0.886l-6.866-4.271c-2.74-1.706-3.583-5.322-1.879-8.063l13.203-21.223 c0.825-1.328,2.119-2.254,3.642-2.609c1.522-0.355,3.092-0.096,4.42,0.731l6.866,4.271c2.741,1.704,3.583,5.32,1.879,8.062 l-13.202,21.223c-0.826,1.328-2.119,2.254-3.642,2.609C174.992,98.117,174.543,98.168,174.097,98.168z M180.446,65.964 c-0.08,0-0.147,0.011-0.196,0.022c-0.128,0.03-0.369,0.119-0.531,0.38L166.517,87.59c-0.248,0.4-0.125,0.927,0.274,1.176 l6.866,4.271c0.262,0.163,0.516,0.137,0.645,0.107c0.128-0.03,0.369-0.119,0.531-0.381l13.202-21.222 c0.248-0.4,0.125-0.927-0.274-1.175l-6.867-4.272h0C180.733,65.993,180.574,65.964,180.446,65.964z"/><path d="M243.291,98.168c-0.446,0-0.895-0.051-1.339-0.155c-1.523-0.355-2.816-1.282-3.642-2.609l-13.202-21.223 c-1.705-2.741-0.862-6.357,1.878-8.062l6.867-4.271h0c1.327-0.827,2.897-1.086,4.42-0.731c1.523,0.355,2.816,1.281,3.642,2.609 l13.202,21.223c1.705,2.741,0.862,6.357-1.878,8.062l-6.867,4.271C245.432,97.867,244.37,98.168,243.291,98.168z M236.942,65.964 c-0.128,0-0.287,0.029-0.448,0.129h0l-6.867,4.271c-0.399,0.249-0.522,0.776-0.273,1.176l13.202,21.223 c0.163,0.261,0.403,0.351,0.531,0.38c0.128,0.029,0.383,0.056,0.644-0.106l6.867-4.271c0.399-0.249,0.522-0.776,0.273-1.176 l-13.201-21.223c-0.163-0.261-0.403-0.351-0.531-0.38C237.089,65.976,237.021,65.964,236.942,65.964z M235.173,63.971h0.01 H235.173z"/><path d="M209.669,117.447c-0.417,0-0.837-0.024-1.259-0.072c-1.263-0.145-2.216-1.213-2.216-2.484s0.954-2.339,2.216-2.484 c1.785-0.204,3.349-1.19,4.292-2.705l5.718-9.192c0.822-1.321,1.08-2.883,0.727-4.398s-1.275-2.802-2.596-3.624l-8.381-5.214 c-1.002-0.623-1.685-1.61-1.922-2.779c-0.033-0.162-0.049-0.326-0.05-0.49l-2.107-1.294c-2.061-1.265-3.417-3.367-3.719-5.767 c-0.303-2.4,0.488-4.773,2.17-6.511c2.326-2.402,6.017-3.05,9.188-1.611l8.428,3.828c1.123,0.51,2.419,0.426,3.468-0.226 l2.404-1.496c0.563-0.349,1.243-0.462,1.888-0.312c0.646,0.15,1.205,0.551,1.556,1.114L242.03,91.92 c0.35,0.563,0.462,1.242,0.312,1.888c-0.15,0.646-0.551,1.206-1.114,1.556l-0.78,0.485c-1.702,1.059-3.104,2.55-4.057,4.313 c-1.365,2.528-3.376,4.666-5.815,6.183l-15.227,9.472C213.621,116.892,211.678,117.447,209.669,117.447z M211.22,83.283 l7.971,4.959c2.455,1.527,4.168,3.918,4.825,6.734s0.176,5.719-1.351,8.173l-2.26,3.633l7.531-4.685 c1.701-1.058,3.104-2.55,4.056-4.313c1.113-2.062,2.657-3.865,4.512-5.283l-9.957-16.007l-0.282,0.175 c-2.471,1.537-5.526,1.736-8.176,0.533l-8.427-3.827c-1.229-0.559-2.681-0.337-3.528,0.536c-0.622,0.643-0.914,1.52-0.802,2.407 c0.112,0.887,0.613,1.664,1.375,2.132l2.491,1.529C210.374,80.701,211.108,81.944,211.22,83.283z"/><path d="M207.724,117.448c-1.996,0-3.954-0.555-5.686-1.632l-15.226-9.471c-2.439-1.517-4.45-3.655-5.815-6.183 c-0.952-1.764-2.355-3.255-4.057-4.314l-0.78-0.484c-0.563-0.35-0.964-0.91-1.114-1.556c-0.151-0.646-0.039-1.325,0.312-1.888 l12.559-20.188c0.35-0.563,0.91-0.964,1.555-1.114c0.646-0.151,1.324-0.039,1.888,0.312l2.404,1.496 c1.047,0.651,2.343,0.735,3.467,0.226l6.083-2.763c1.099-0.5,2.4-0.141,3.089,0.853c0.688,0.994,0.567,2.337-0.288,3.191 c-0.01,0.01-0.02,0.02-0.03,0.03c-0.58,0.612-0.864,1.479-0.753,2.356c0.112,0.887,0.613,1.664,1.375,2.132l2.491,1.529 c1.031,0.633,1.722,1.648,1.948,2.86c0.026,0.14,0.041,0.282,0.042,0.423l8.003,4.979c2.455,1.527,4.168,3.919,4.825,6.735 s0.176,5.719-1.351,8.173l-5.718,9.193c-1.523,2.449-3.915,4.16-6.735,4.817C209.386,117.353,208.551,117.448,207.724,117.448z M180.884,92.502c1.855,1.418,3.399,3.221,4.512,5.283c0.953,1.764,2.355,3.255,4.057,4.313l15.227,9.472 c1.317,0.819,2.879,1.074,4.397,0.72c1.519-0.354,2.806-1.273,3.625-2.588l5.718-9.193c0.822-1.321,1.08-2.883,0.727-4.398 s-1.275-2.802-2.596-3.624c0,0,0,0,0,0l-8.381-5.213c-1.155-0.718-1.883-1.956-1.997-3.284l-2.083-1.279 c-2.061-1.265-3.417-3.367-3.719-5.767c-0.009-0.073-0.018-0.145-0.024-0.217l-1.048,0.476c-2.649,1.204-5.706,1.003-8.176-0.533 l-0.281-0.175L180.884,92.502z"/></svg>