<svg xmlns="http://www.w3.org/2000/svg"  viewBox="0 0 60 60" width="42px" height="42px"><g fill="none" fill-rule="nonzero"><rect width="16" height="6" x="22" y="48" fill="#004272"/><path fill="#005793" d="M48,57 L48,58 C48,58.5522847 47.5522847,59 47,59 L13,59 C12.4477153,59 12,58.5522847 12,58 L12,57 C12,55.3431458 13.3431458,54 15,54 L45,54 C46.6568542,54 48,55.3431458 48,57 Z"/><path fill="#005793" d="M59,41 L59,45 C59,46.6568542 57.6568542,48 56,48 L4,48 C2.34314575,48 1,46.6568542 1,45 L1,41 L59,41 Z"/><path fill="#00ABE8" d="M59,11 L59,41 L1,41 L1,11 C1,9.34314575 2.34314575,8 4,8 L11.81,8 C10.0259687,9.36314511 8.98548416,11.4848448 9,13.73 C8.92014704,17.5506467 11.9494818,20.7142208 15.77,20.8 C16.2299133,20.794027 16.6883848,20.7471759 17.14,20.66 C17.1316999,20.7061786 17.1283476,20.7531105 17.13,20.8 C17.050147,24.6206467 20.0794818,27.7842208 23.9,27.87 C25.4136859,27.8228069 26.912566,27.5567136 28.35,27.08 C30.2179248,29.6633259 31.4387619,32.6571203 31.91,35.81 C32.0033064,36.4821901 32.5714938,36.9867744 33.25,37 L36.65,37 C37.4098444,36.9782082 38.0112499,36.3500735 38,35.59 L38,31.53 C38.6569115,31.9088468 39.4016753,32.1088297 40.16,32.11 C43.8713362,32.0388646 46.8598289,29.0415301 46.92,25.33 C49.4724835,23.7579928 51.0192947,20.9676668 51,17.97 C51.0426621,14.4237138 48.8658065,11.2283295 45.55,9.97 C45.5752314,9.81131696 45.5852768,9.65058981 45.58,9.49 C45.5811327,8.98950829 45.5308691,8.49022308 45.43,8 L56,8 C56.7956495,8 57.5587112,8.31607052 58.1213203,8.87867966 C58.6839295,9.44128879 59,10.2043505 59,11 Z"/><path fill="#D50983" d="M51,17.97 C51.0192947,20.9676668 49.4724835,23.7579928 46.92,25.33 C46.8598289,29.0415301 43.8713362,32.0388646 40.16,32.11 C39.4016753,32.1088297 38.6569115,31.9088468 38,31.53 L38,35.59 C38.0112499,36.3500735 37.4098444,36.9782082 36.65,37 L33.25,37 C32.5714938,36.9867744 32.0033064,36.4821901 31.91,35.81 C31.4387619,32.6571203 30.2179248,29.6633259 28.35,27.08 C26.912566,27.5567136 25.4136859,27.8228069 23.9,27.87 C20.0794818,27.7842208 17.050147,24.6206467 17.13,20.8 C17.1283476,20.7531105 17.1316999,20.7061786 17.14,20.66 C16.6883848,20.7471759 16.2299133,20.794027 15.77,20.8 C11.9494818,20.7142208 8.92014704,17.5506467 9,13.73 C8.98548416,11.4848448 10.0259687,9.36314511 11.81,8 C12.3159284,7.61466623 12.8750855,7.3047719 13.47,7.08 C14.3828436,4.32613453 16.9390886,2.4520899 19.84,2.41 C20.3282418,2.41106779 20.8147515,2.46810687 21.29,2.58 C23.3870736,0.782138413 26.3855887,0.490282939 28.79,1.85 L28.81,1.85 C31.3227843,0.42801267 34.4701249,0.817876799 36.56,2.81 C37.2815589,2.5487993 38.0426273,2.41349825 38.81,2.41 C42.0640878,2.46499126 44.8306544,4.80111011 45.43,8 C45.5308691,8.49022308 45.5811327,8.98950829 45.58,9.49 C45.5852768,9.65058981 45.5752314,9.81131696 45.55,9.97 C48.8658065,11.2283295 51.0426621,14.4237138 51,17.97 Z"/><path fill="#FFF" d="M15.774,15.8 C14.7159251,15.7107443 13.9257083,14.7882307 14,13.729 C13.9907173,12.9766315 14.3707789,12.2728557 15.005,11.868 C15.4700043,11.5874818 15.6261324,10.9871142 15.3566968,10.5156019 C15.0872611,10.0440895 14.4907563,9.87379784 14.013,10.132 C12.7551849,10.8926543 11.9904762,12.259101 12,13.729 C11.923392,15.8933299 13.6100731,17.7127466 15.774,17.8 C16.3262847,17.8 16.774,17.3522847 16.774,16.8 C16.774,16.2477153 16.3262847,15.8 15.774,15.8 Z"/><path fill="#FFF" d="M26.855,22.308 C25.9016391,22.6307791 24.9082396,22.8202385 23.903,22.871 C22.9607793,22.8011377 22.2130418,22.0495657 22.148,21.107 C22.10227,20.7525925 21.8709396,20.4495032 21.5411488,20.3119028 C21.2113579,20.1743024 20.8332096,20.2230957 20.5491487,20.4399028 C20.2650879,20.6567098 20.11827,21.0085925 20.164,21.363 C20.3584619,23.3012775 21.95333,24.7988142 23.9,24.871 C25.1078311,24.8228048 26.302576,24.6022417 27.448,24.216 C27.9748797,24.0503146 28.2676854,23.4888797 28.102,22.962 C27.9363146,22.4351203 27.3748797,22.1423146 26.848,22.308 L26.855,22.308 Z"/><path fill="#FFF" d="M44.534,12.788 C44.0145762,12.6002232 43.4412768,12.8690762 43.2535,13.3885 C43.0657232,13.9079238 43.3345762,14.4812232 43.854,14.669 C45.1902891,15.2121477 46.0467096,16.5303009 46,17.972 C46.0183371,19.2154671 45.3893402,20.3791681 44.339,21.045 C43.8659681,21.3302551 43.713745,21.9449681 43.999,22.418 C44.2842551,22.8910319 44.8989681,23.043255 45.372,22.758 C47.0208273,21.7283659 48.0160874,19.9158413 48,17.972 C48.0459509,15.6881836 46.6620349,13.6182989 44.534,12.788 Z"/><path fill="#FFF" d="M38.807,5.414 C38.38816,5.41434707 37.9725933,5.48778189 37.579,5.631 C37.0595762,5.81877681 36.7907232,6.39207619 36.9785,6.9115 C37.1662768,7.43092381 37.7395762,7.69977681 38.259,7.512 C38.4344142,7.44688024 38.6198913,7.41303406 38.807,7.412 C39.8587407,7.50229428 40.6462289,8.41540767 40.581,9.469 C40.5848469,10.0185491 41.0314374,10.4620135 41.581,10.462 L41.588,10.462 C41.8532185,10.46015 42.1068387,10.3530147 42.2930638,10.1641642 C42.4792888,9.97531361 42.582863,9.72021844 42.581,9.455 C42.6386025,7.30302504 40.9578884,5.50340515 38.807,5.414 Z"/><path fill="#FFF" d="M28.24,4.976 L27.331,4.468 C26.7888963,4.16325442 26.1778856,4.00215414 25.556,4 C24.7017822,4.00200084 23.876696,4.31074279 23.231,4.87 C22.8166746,5.22925516 22.7689737,5.85517231 23.1240728,6.27306507 C23.479172,6.69095784 24.1045815,6.74490775 24.526,6.394 C25.0355532,5.95071089 25.7698432,5.87848565 26.356,6.214 L27.266,6.722 C27.7461307,6.97339654 28.3391386,6.79656459 28.6031681,6.32326329 C28.8671976,5.84996199 28.7061396,5.25247704 28.24,4.976 Z"/><path fill="#FFF" d="M27.4,12.071 L26.4,12.342 C25.7982632,12.4997079 25.2472516,12.8096519 24.8,13.242 C24.1892241,13.8382471 23.8124327,14.6336956 23.738,15.484 C23.7123717,15.7481898 23.7928277,16.0117301 23.9616423,16.2165585 C24.130457,16.4213869 24.3737788,16.5506972 24.638,16.576 C24.671,16.576 24.703,16.576 24.738,16.576 C25.2511825,16.5754932 25.680682,16.1866104 25.732,15.676 C25.7600771,15.2971693 25.9254167,14.9416003 26.197,14.676 C26.400017,14.48329 26.6488769,14.3456082 26.92,14.276 L27.917,14 C28.4505071,13.856406 28.766594,13.3075071 28.623,12.774 C28.479406,12.2404929 27.9305071,11.924406 27.397,12.068 L27.4,12.071 Z"/><path fill="#FFF" d="M37.325,17.537 C36.8792157,16.8082667 36.1859251,16.2644259 35.372,16.005 C35.0325977,15.8933545 34.6594148,15.9712588 34.3930259,16.2093671 C34.1266369,16.4474753 34.0075125,16.8096133 34.0805258,17.1593671 C34.1535392,17.5091208 34.4075977,17.7933545 34.747,17.905 C35.1081725,18.0174799 35.416921,18.2559616 35.617,18.577 C35.7613888,18.8178252 35.8422497,19.091376 35.852,19.372 L35.891,20.413 C35.9109115,20.9507838 36.3528478,21.3763685 36.891,21.376 L36.929,21.376 C37.480654,21.3553944 37.9112581,20.8916669 37.891,20.34 L37.85,19.3 C37.8282505,18.6771714 37.6475204,18.0702627 37.325,17.537 Z"/><path fill="#FFF" d="M5,13 C4.44771525,13 4,13.4477153 4,14 L4,15 C4,15.5522847 4.44771525,16 5,16 C5.55228475,16 6,15.5522847 6,15 L6,14 C6,13.4477153 5.55228475,13 5,13 Z"/><path fill="#FFF" d="M5,18 C4.44771525,18 4,18.4477153 4,19 L4,35 C4,35.5522847 4.44771525,36 5,36 C5.55228475,36 6,35.5522847 6,35 L6,19 C6,18.4477153 5.55228475,18 5,18 Z"/><path fill="#000" d="M56,7 L46.2,7 C45.2194225,3.72438117 42.2288424,1.46222387 38.81,1.41 C38.127571,1.41159981 37.4484664,1.50510704 36.791,1.688 C34.5215263,-0.11353549 31.4312954,-0.484394142 28.8,0.729 C26.2603292,-0.442898171 23.2846789,-0.143839764 21.029,1.51 C17.4675728,0.969753197 14.0061309,2.96527026 12.689,6.318 C12.2760956,6.51026098 11.8809055,6.73847403 11.508,7 L4,7 C1.790861,7 2.705415e-16,8.790861 0,11 L0,45 C2.705415e-16,47.209139 1.790861,49 4,49 L21,49 L21,53 L15,53 C12.790861,53 11,54.790861 11,57 L11,58 C11,59.1045695 11.8954305,60 13,60 L47,60 C48.1045695,60 49,59.1045695 49,58 L49,57 C49,54.790861 47.209139,53 45,53 L39,53 L39,49 L56,49 C58.209139,49 60,47.209139 60,45 L60,11 C60,8.790861 58.209139,7 56,7 Z M14.414,7.408 C15.1880676,5.05650507 17.3647656,3.45186219 19.84,3.408 C20.2529073,3.40861902 20.6643404,3.45727954 21.066,3.553 C21.3744685,3.62383724 21.6982619,3.5444652 21.939,3.339 C23.7306876,1.84534493 26.253605,1.59943882 28.3,2.719 C28.6116516,2.88902637 28.9883484,2.88902637 29.3,2.719 C31.4400244,1.54756953 34.0896201,1.87751007 35.877,3.538 C36.1511906,3.79198534 36.5434964,3.87321843 36.896,3.749 C37.5098539,3.52713169 38.1572856,3.41246118 38.81,3.41 C41.5895706,3.47278155 43.9441375,5.47631296 44.451,8.21 C44.5373236,8.6311838 44.5805464,9.06006133 44.58,9.49 C44.5853138,9.58818921 44.5809595,9.68666301 44.567,9.784 C44.4755651,10.2668777 44.7485615,10.7446214 45.211,10.911 C48.1320419,12.0239303 50.0455563,14.8444561 50,17.97 C50.0107498,20.6165576 48.6480257,23.0793028 46.4,24.476 C46.1120702,24.6510108 45.9316344,24.9592553 45.92,25.296 C45.8902394,28.4736288 43.3372128,31.05059 40.16,31.11 C39.6222832,31.1200882 39.0919723,30.9835348 38.626,30.715 L38.407,30.615 C38.0973901,30.4770453 37.7389741,30.5053167 37.4548219,30.6901065 C37.1706697,30.8748963 36.999467,31.1910465 37,31.53 L37,35.59 C37.0102191,35.7977549 36.8567847,35.9774922 36.65,36 L33.25,36 C33.0673342,35.9863507 32.920069,35.8449593 32.899,35.663 C32.410298,32.3441816 31.1238513,29.1934337 29.15,26.481 C29.0640224,26.3717373 28.9560159,26.2817886 28.833,26.217 C28.8048295,26.2007477 28.7757856,26.1860588 28.746,26.173 C28.622689,26.1157251 28.4889205,26.0844104 28.353,26.081 C28.2513037,26.0807959 28.1501608,26.0959673 28.053,26.126 C26.711996,26.5739312 25.3130842,26.8248798 23.9,26.871 C20.6339692,26.7794087 18.0555343,24.0664661 18.13,20.8 C18.1717983,20.4996646 18.0750632,20.1965859 17.867,19.976 C17.6373961,19.7250957 17.2939303,19.6114907 16.96,19.676 C16.5678161,19.7525464 16.1695493,19.7937117 15.77,19.799 C12.5033196,19.7106554 9.92333379,16.9969753 10,13.73 C9.9999474,13.4877239 10.013971,13.2456493 10.042,13.005 C10.2260354,11.3412898 11.0804702,9.82454166 12.408,8.805 C12.8358121,8.47713672 13.3091183,8.21336536 13.813,8.022 C14.0955281,7.91821025 14.3162792,7.69268421 14.414,7.408 Z M2,11 C2,9.8954305 2.8954305,9 4,9 L9.479,9 C9.456,9.034 9.44,9.073 9.417,9.107 C9.20598806,9.414521 9.01653449,9.73629134 8.85,10.07 L8.84,10.092 C8.68189698,10.4234216 8.54560696,10.7648148 8.432,11.114 C8.396,11.221 8.368,11.329 8.332,11.437 C8.25468724,11.7052868 8.19093978,11.9772982 8.141,12.252 C8.121,12.363 8.099,12.473 8.083,12.585 C8.0292203,12.9643236 8.00148872,13.3468858 8,13.73 C7.92358365,18.1015721 11.3986694,21.7108311 15.77,21.8 C15.905,21.8 16.045,21.8 16.188,21.787 C16.596697,25.758975 19.9076693,28.7999004 23.9,28.87 C25.2713623,28.8366198 26.632512,28.624497 27.949,28.239 C29.4885767,30.5687141 30.5033372,33.2052488 30.923,35.966 C31.0883071,37.1265062 32.0778108,37.9914183 33.25,38 L36.65,38 C37.9637761,37.9818907 39.0150116,36.9038152 39,35.59 L39,32.99 C39.3804566,33.0765471 39.7698624,33.1175018 40.16,33.112 C44.211833,33.0655617 47.5606847,29.9390997 47.885,25.9 C50.4707069,24.0884484 52.0073748,21.1271419 52,17.97 C52.0348276,14.2735949 49.918538,10.8938547 46.578,9.311 C46.578,9.206 46.572,9.103 46.566,9 L56,9 C57.1045695,9 58,9.8954305 58,11 L58,40 L2,40 L2,11 Z M47,57 L47,58 L13,58 L13,57 C13,55.8954305 13.8954305,55 15,55 L45,55 C46.1045695,55 47,55.8954305 47,57 Z M37,53 L23,53 L23,49 L37,49 L37,53 Z M58,45 C58,46.1045695 57.1045695,47 56,47 L4,47 C2.8954305,47 2,46.1045695 2,45 L2,42 L58,42 L58,45 Z"/></g></svg>